<svg width="540" height="540" viewBox="0 0 540 540" fill="none" xmlns="http://www.w3.org/2000/svg">
<path d="M183.95 253C183.65 253 183.3 253 183 253C182.25 253 181.45 253 180.7 253.1C165.2 254.2 152.75 266.45 151.4 281.9C151.1 285.4 151 288.8 151 288.8V311.95C151 313.05 151.9 313.95 153 313.95H165.35C166.45 313.95 167.35 313.05 167.35 311.95V295.4C167.35 291 167 286.6 168.2 282.3C169.75 276.95 173.8 272.55 178.95 270.45C179.8 270.1 180.65 269.8 181.55 269.6C182.35 269.4 183.2 269.25 184.05 269.2C185.1 269.1 185.9 268.25 185.9 267.2V255.05C185.9 254 185.05 253.1 184 253.05L183.95 253Z" fill="white" fill-opacity="0.9"/>
<path d="M217.8 257.25L205.8 261.6C205 261.9 204.5 262.65 204.5 263.5V311.95C204.5 313.05 205.4 313.95 206.5 313.95H218.5C219.6 313.95 220.5 313.05 220.5 311.95V259.15C220.5 257.75 219.1 256.8 217.8 257.25Z" fill="white" fill-opacity="0.8"/>
<path d="M217.25 225.85C215.35 225.85 213.5 226.7 212.15 228.05L202.8 237.4C202.15 238.05 202.6 239.1 203.5 239.1H217.45C219.25 239.1 220.95 238.35 222.15 237.15C223.35 235.95 224.15 234.2 224.1 232.35C224.05 228.7 220.9 225.8 217.3 225.85H217.25Z" fill="white"/>
<path d="M221.65 242.55H207.7C205.9 242.55 204.2 243.3 203 244.5C201.75 245.75 201 247.45 201.05 249.3C201.1 252.95 204.25 255.85 207.85 255.8C209.75 255.8 211.6 254.95 212.95 253.6L222.3 244.25C222.95 243.6 222.5 242.55 221.6 242.55H221.65Z" fill="#879B97"/>
<path d="M130.1 253.05H116.8C115.7 253.05 114.8 252.15 114.8 251.05V230.1C114.8 228.75 113.45 227.8 112.2 228.2L99.9 232.25C99.1 232.5 98.55 233.3 98.5 234.15V281.8C98.75 295.5 108.6 309.05 121.85 312.85C124.25 313.55 127.25 313.85 130 313.95C131.15 313.95 132.05 313.1 132.05 311.95V300.55C132.05 299.6 131.4 298.75 130.45 298.6C127.95 298.1 125.6 297.15 123.5 295.8C118.45 292.5 115.05 286.95 114.75 280.6V269.1C114.75 268.8 114.95 268.6 115.25 268.6H130.05C131.15 268.6 132.05 267.7 132.05 266.6V255.05C132.05 253.95 131.15 253.05 130.05 253.05H130.1Z" fill="white"/>
<path d="M439.85 289.05C439.25 286.85 438.3 284.8 437 282.95C433.45 277.8 427.5 274.45 420.8 274.45H416.45C415 274.45 413.75 273.4 413.6 272C413.45 270.4 414.7 269 416.3 269H437.55C438.65 269 439.55 268.1 439.55 267V254C439.55 252.9 438.65 252 437.55 252H416.3C405.4 252 396.55 260.85 396.55 271.75C396.5 275 397 276 397.25 276.9C397.85 279.1 398.8 281.15 400.1 283C403.65 288.15 409.6 291.5 416.3 291.5H420.65C422.1 291.5 423.4 292.55 423.5 293.95C423.65 295.55 422.4 296.9 420.8 296.9H399.45C398.35 296.9 397.45 297.8 397.45 298.9V311.9C397.45 313 398.35 313.9 399.45 313.9H420.4C431.35 313.9 440.65 304.95 440.55 293.95C440.55 292.25 440.3 290.65 439.85 289.05Z" fill="white" fill-opacity="0.5"/>
<path d="M264 254.55C263.9 254.55 263.65 254.7 263.35 254.8C263.25 254.8 263.2 254.9 263.1 254.9C262.9 255 262.65 255.05 262.4 255.05C261.3 255.05 260.45 254.15 260.45 253.1V230.15C260.45 228.8 259.1 227.8 257.8 228.25L245.75 232.4C244.95 232.7 244.4 233.45 244.4 234.3V283.45C244.4 286.25 244.7 289 245.5 291.7C251.45 312.65 278.45 321.7 295.6 306.1C320.4 283.55 296.55 243.15 264 254.6V254.55ZM289.5 284.15C289.05 291.35 283.2 297.2 276 297.65C267.6 298.2 260.6 291.5 260.6 283.2C260.6 274.9 267.1 268.75 275.05 268.75C283 268.75 290 275.7 289.5 284.1V284.15Z" fill="white" fill-opacity="0.7"/>
<path d="M349.35 253.55C333.8 254.25 321.2 266.8 320.45 282.35C319.65 299.7 333.5 314.05 350.7 314.05C365.5 314 370 308 370.5 307C371.765 304.47 371.15 304.4 370 303.7L359.05 296.75C358.45 296.35 357.7 296.35 357.05 296.65C355.15 297.6 352.95 298.15 350.7 298.15C346.35 298.15 342.5 296.25 339.85 293.2C339.3 292.55 339.75 291.55 340.6 291.55H379.15C379.6 291.55 380 291.25 380.1 290.8C380.65 288.55 380.9 286.2 380.9 283.8C380.9 281.4 380.6 278.8 380 276.4C376.6 262.85 364.05 252.9 349.3 253.55H349.35ZM361.1 276.35H340.35C339.5 276.35 339.05 275.35 339.6 274.7C342.25 271.45 346.25 269.4 350.75 269.4C355.25 269.4 359.25 271.5 361.9 274.7C362.45 275.35 361.95 276.35 361.15 276.35H361.1Z" fill="white" fill-opacity="0.6"/>
</svg>
